<svg width="187" height="180" viewBox="0 0 187 180" fill="none" xmlns="http://www.w3.org/2000/svg">
<path d="M0 5.83541H6.26006V38.2544H12.2479V5.83541H18.508V0.43225H0V5.83541Z" fill="#F79E89"/>
<path fill-rule="evenodd" clip-rule="evenodd" d="M60.4967 29.1771C60.4967 35.2286 63.7084 38.6866 69.5874 38.6866C75.4664 38.6866 78.6781 35.2286 78.6781 29.1771V9.50956C78.6781 3.45802 75.4664 0 69.5874 0C63.7084 0 60.4967 3.45802 60.4967 9.50956V29.1771ZM66.4846 9.13134C66.4846 6.42976 67.6822 5.40316 69.5874 5.40316C71.4926 5.40316 72.6902 6.42976 72.6902 9.13134V29.5553C72.6902 32.2569 71.4926 33.2835 69.5874 33.2835C67.6822 33.2835 66.4846 32.2569 66.4846 29.5553V9.13134Z" fill="#F79E89"/>
<path fill-rule="evenodd" clip-rule="evenodd" d="M1.63306 108.911H11.1048C17.0927 108.911 20.0322 105.615 20.0322 99.5636V80.4364C20.0322 74.3849 17.0927 71.089 11.1048 71.089H1.63306V108.911ZM10.9959 76.4921C12.9012 76.4921 14.0443 77.4647 14.0443 80.1663V99.8338C14.0443 102.535 12.9012 103.508 10.9959 103.508H7.62094V76.4921H10.9959Z" fill="#F79E89"/>
<path fill-rule="evenodd" clip-rule="evenodd" d="M63.1015 99.8338C63.1015 105.885 66.3132 109.343 72.1922 109.343C78.0712 109.343 81.2829 105.885 81.2829 99.8338V80.1663C81.2829 74.1147 78.0712 70.6567 72.1922 70.6567C66.3132 70.6567 63.1015 74.1147 63.1015 80.1663V99.8338ZM69.0894 79.788C69.0894 77.0864 70.287 76.0599 72.1922 76.0599C74.0974 76.0599 75.295 77.0864 75.295 79.788V100.212C75.295 102.914 74.0974 103.94 72.1922 103.94C70.287 103.94 69.0894 102.914 69.0894 100.212V79.788Z" fill="#F79E89"/>
<path d="M17.4737 179.568H1.63306V141.746H7.62094V174.165H17.4737V179.568Z" fill="#F79E89"/>
<path d="M65.9113 179.568H59.9234V141.746H65.9113V179.568Z" fill="#F79E89"/>
<path d="M115.835 162.635C112.69 159.779 109.265 156.669 109.265 150.823C109.265 144.771 112.259 141.313 118.084 141.313C123.908 141.313 126.902 144.771 126.902 150.823V152.282H121.241V150.445C121.241 147.743 120.152 146.717 118.247 146.717C116.342 146.717 115.253 147.743 115.253 150.445C115.253 154.016 117.719 156.256 120.387 158.679C123.532 161.534 126.957 164.645 126.957 170.49C126.957 176.542 123.908 180 118.029 180C112.15 180 109.102 176.542 109.102 170.49V167.897H114.763V170.869C114.763 173.57 115.961 174.543 117.866 174.543C119.771 174.543 120.969 173.57 120.969 170.869C120.969 167.297 118.503 165.058 115.835 162.635Z" fill="#F79E89"/>
<path d="M174.752 147.149H168.492V141.746H187V147.149H180.74V179.568H174.752V147.149Z" fill="#F79E89"/>
<path d="M186.225 5.61287C187.043 6.42444 187.043 7.74024 186.225 8.55181L170.523 24.1378C169.705 24.9494 168.38 24.9494 167.562 24.1378L162.851 19.462C162.034 18.6505 162.034 17.3347 162.851 16.5231C163.669 15.7115 164.994 15.7115 165.812 16.5231L169.042 19.7294L183.264 5.61287C184.082 4.80131 185.408 4.80131 186.225 5.61287Z" fill="#F79E89"/>
<path d="M157.31 7.90625C157.507 7.71139 157.773 7.60191 158.051 7.60191H175.323C176.48 7.60191 177.417 6.6715 177.417 5.52378C177.417 4.37605 176.48 3.44564 175.323 3.44564H158.051C156.663 3.44564 155.331 3.993 154.35 4.96732C153.368 5.94163 152.817 7.26309 152.817 8.64098V30.4614C152.817 31.8393 153.368 33.1608 154.35 34.1351C155.331 35.1094 156.663 35.6568 158.051 35.6568H180.034C181.422 35.6568 182.754 35.1094 183.735 34.1351C184.717 33.1608 185.268 31.8393 185.268 30.4614V19.5512C185.268 18.4035 184.331 17.4731 183.175 17.4731C182.018 17.4731 181.081 18.4035 181.081 19.5512V30.4614C181.081 30.737 180.971 31.0013 180.774 31.1962C180.578 31.391 180.312 31.5005 180.034 31.5005H158.051C157.773 31.5005 157.507 31.391 157.31 31.1962C157.114 31.0013 157.004 30.737 157.004 30.4614V8.64098C157.004 8.3654 157.114 8.10111 157.31 7.90625Z" fill="#F79E89"/>
</svg>
