<svg width="202" height="159" viewBox="0 0 202 159" fill="none" xmlns="http://www.w3.org/2000/svg">
<path d="M201.31 138.923H0V139.029H201.31V138.923Z" fill="#EBEBEB"/>
<path d="M181.139 142.962H144.54V143.068H181.139V142.962Z" fill="#EBEBEB"/>
<path d="M133.356 141.813H123.334V141.919H133.356V141.813Z" fill="#EBEBEB"/>
<path d="M156.261 146.904H140.724V147.009H156.261V146.904Z" fill="#EBEBEB"/>
<path d="M30.2367 146.192H21.1214V146.297H30.2367V146.192Z" fill="#EBEBEB"/>
<path d="M44.6465 146.192H33.8201V146.297H44.6465V146.192Z" fill="#EBEBEB"/>
<path d="M90.6498 144.401H71.7911V144.506H90.6498V144.401Z" fill="#EBEBEB"/>
<path d="M95.4209 119.998H17.679C17.07 119.997 16.4863 119.741 16.056 119.287C15.6258 118.833 15.3841 118.217 15.3841 117.575V2.40166C15.3894 1.76349 15.6334 1.1533 16.0631 0.703618C16.4928 0.253939 17.0735 0.00109322 17.679 0H95.4209C96.0306 0 96.6153 0.255267 97.0465 0.709644C97.4776 1.16402 97.7198 1.78029 97.7198 2.42288V117.575C97.7198 118.218 97.4776 118.834 97.0465 119.289C96.6153 119.743 96.0306 119.998 95.4209 119.998V119.998ZM17.679 0.0848647C17.0967 0.0859887 16.5386 0.330574 16.1272 0.764936C15.7158 1.1993 15.4848 1.78794 15.4848 2.40166V117.575C15.4848 118.189 15.7158 118.778 16.1272 119.212C16.5386 119.646 17.0967 119.891 17.679 119.892H95.4209C96.0036 119.891 96.5621 119.647 96.9741 119.212C97.3862 118.778 97.6181 118.189 97.6192 117.575V2.40166C97.6181 1.78755 97.3862 1.19892 96.9741 0.764677C96.5621 0.330436 96.0036 0.0859863 95.4209 0.0848647H17.679Z" fill="#EBEBEB"/>
<path d="M182.512 119.998H104.766C104.156 119.997 103.572 119.741 103.141 119.287C102.71 118.833 102.468 118.218 102.467 117.575V2.40166C102.473 1.7631 102.718 1.15291 103.148 0.703353C103.579 0.25379 104.16 0.00108129 104.766 0H182.512C183.116 0.00220838 183.696 0.255547 184.125 0.705107C184.554 1.15467 184.797 1.76422 184.802 2.40166V117.575C184.802 118.216 184.561 118.831 184.132 119.286C183.703 119.74 183.12 119.996 182.512 119.998V119.998ZM104.766 0.0848647C104.183 0.0859863 103.624 0.330436 103.212 0.764677C102.8 1.19892 102.568 1.78755 102.567 2.40166V117.575C102.568 118.189 102.8 118.778 103.212 119.212C103.624 119.647 104.183 119.891 104.766 119.892H182.512C183.094 119.891 183.653 119.647 184.065 119.212C184.477 118.778 184.709 118.189 184.71 117.575V2.40166C184.709 1.78755 184.477 1.19892 184.065 0.764677C183.653 0.330436 183.094 0.0859863 182.512 0.0848647H104.766Z" fill="#EBEBEB"/>
<path d="M21.1174 138.919H69.2546L69.2546 26.7238H21.1174L21.1174 138.919Z" fill="#F0F0F0"/>
<path d="M21.1214 138.919H66.9758L66.9758 26.7238H21.1214L21.1214 138.919Z" fill="#F5F5F5"/>
<path d="M64.5601 136.377V29.274L23.5371 29.274L23.5371 136.377H64.5601Z" fill="#F0F0F0"/>
<path d="M36.7914 79.7725H28.429C28.1442 79.7713 27.8714 79.6516 27.67 79.4394C27.4686 79.2272 27.355 78.9397 27.354 78.6395V78.6395C27.355 78.3394 27.4686 78.0519 27.67 77.8397C27.8714 77.6274 28.1442 77.5077 28.429 77.5066H36.7914C37.0762 77.5077 37.349 77.6274 37.5504 77.8397C37.7517 78.0519 37.8653 78.3394 37.8664 78.6395V78.6395C37.8653 78.9397 37.7517 79.2272 37.5504 79.4394C37.349 79.6516 37.0762 79.7713 36.7914 79.7725Z" fill="white"/>
<path d="M24.1652 136.377L24.1652 29.274H23.5372L23.5372 136.377H24.1652Z" fill="#F0F0F0"/>
<path d="M91.8094 136.793H98.976V104.035H91.8094V136.793Z" fill="#F0F0F0"/>
<path d="M62.2571 138.872H97.599V136.797H62.2571V138.872Z" fill="#F0F0F0"/>
<path d="M91.8094 104.039H60.8801V136.797H91.8094V104.039Z" fill="#F5F5F5"/>
<path d="M88.987 108.071H63.6944V118.814H88.987V108.071Z" fill="#F0F0F0"/>
<path d="M88.987 122.018H63.6944V132.762H88.987V122.018Z" fill="#F0F0F0"/>
<path d="M73.5023 108.974H79.1832C79.3676 108.973 79.5442 108.896 79.6746 108.758C79.805 108.621 79.8787 108.435 79.8798 108.24C79.8798 108.045 79.8065 107.858 79.676 107.72C79.5455 107.581 79.3683 107.503 79.1832 107.502H73.5023C73.3172 107.503 73.14 107.581 73.0095 107.72C72.879 107.858 72.8057 108.045 72.8057 108.24V108.24C72.8068 108.435 72.8805 108.621 73.0109 108.758C73.1413 108.896 73.3178 108.973 73.5023 108.974V108.974Z" fill="#F5F5F5"/>
<path d="M73.5023 122.926H79.1832C79.3656 122.925 79.5403 122.849 79.6704 122.714C79.8005 122.58 79.8756 122.397 79.8798 122.205V122.205C79.8787 122.01 79.805 121.824 79.6746 121.687C79.5442 121.549 79.3676 121.472 79.1832 121.471H73.5023C73.3178 121.472 73.1413 121.549 73.0109 121.687C72.8805 121.824 72.8068 122.01 72.8057 122.205V122.205C72.8099 122.397 72.885 122.58 73.0151 122.714C73.1451 122.849 73.3199 122.925 73.5023 122.926V122.926Z" fill="#F5F5F5"/>
<path d="M78.7001 103.395C78.5594 103.393 78.4249 103.334 78.3254 103.229C78.226 103.124 78.1697 102.983 78.1686 102.834V85.815C78.1686 85.6664 78.2246 85.524 78.3243 85.4189C78.4239 85.3139 78.5591 85.2549 78.7001 85.2549V85.2549C78.8407 85.256 78.9753 85.3154 79.0747 85.4202C79.1741 85.525 79.2305 85.6668 79.2315 85.815V102.834C79.2305 102.983 79.1741 103.124 79.0747 103.229C78.9753 103.334 78.8407 103.393 78.7001 103.395V103.395Z" fill="#F5F5F5"/>
<path d="M83.6724 102.733H73.7277V104.052H83.6724V102.733Z" fill="#F0F0F0"/>
<path d="M81.454 93.2107C81.3842 93.2107 81.3172 93.1818 81.2675 93.1302C81.2178 93.0786 81.1893 93.0084 81.1883 92.9349V84.4401C81.1893 84.3662 81.2176 84.2956 81.2672 84.2433C81.3169 84.191 81.3838 84.1611 81.454 84.16C81.5241 84.1611 81.5911 84.191 81.6407 84.2433C81.6904 84.2956 81.7187 84.3662 81.7197 84.4401V92.9264C81.7203 92.9635 81.7138 93.0004 81.7007 93.0349C81.6875 93.0693 81.6681 93.1007 81.6433 93.1272C81.6186 93.1536 81.5891 93.1746 81.5566 93.189C81.5241 93.2033 81.4892 93.2107 81.454 93.2107Z" fill="#F0F0F0"/>
<path d="M70.9658 87.3678C70.9658 87.3678 71.163 79.3481 78.7001 79.3481C86.2371 79.3481 86.4304 87.3593 86.4304 87.3593L70.9658 87.3678Z" fill="#F0F0F0"/>
<path d="M136.21 98.6974C136.424 98.6974 136.641 98.6974 136.858 98.7186C139.085 98.8882 141.179 99.9001 142.754 101.568C144.329 103.236 145.28 105.447 145.43 107.795C145.494 108.861 145.393 109.932 145.132 110.964C144.123 115.107 143.636 119.371 143.683 123.647V136.097C143.683 136.313 143.643 136.526 143.565 136.725C143.487 136.925 143.372 137.106 143.227 137.258C143.083 137.41 142.911 137.531 142.721 137.613C142.532 137.694 142.329 137.736 142.125 137.735H104.629V98.6974H136.21Z" fill="#F0F0F0"/>
<path d="M95.3887 108.435C95.3926 107.051 95.6767 105.684 96.2218 104.424C96.767 103.165 97.5608 102.043 98.5502 101.132C99.5395 100.222 100.702 99.5444 101.959 99.145C103.217 98.7455 104.541 98.6333 105.843 98.8159C107.145 98.9984 108.395 99.4715 109.509 100.204C110.624 100.936 111.578 101.91 112.307 103.061C113.036 104.213 113.524 105.515 113.738 106.88C113.951 108.246 113.886 109.644 113.547 110.981C112.541 115.124 112.055 119.388 112.101 123.664V136.114C112.101 136.329 112.061 136.541 111.983 136.74C111.905 136.938 111.79 137.119 111.646 137.27C111.502 137.422 111.33 137.542 111.142 137.624C110.953 137.706 110.751 137.748 110.547 137.747H98.7062C98.5027 137.747 98.3011 137.705 98.1131 137.623C97.925 137.541 97.7541 137.421 97.6102 137.269C97.4662 137.117 97.352 136.937 97.2741 136.739C97.1963 136.541 97.1562 136.328 97.1562 136.114V122.917C97.1904 118.907 96.7082 114.91 95.7228 111.036C95.5008 110.189 95.3884 109.314 95.3887 108.435V108.435Z" fill="#F5F5F5"/>
<path d="M117.36 137.735H151.023V114.032H117.36V137.735Z" fill="#F0F0F0"/>
<path d="M178.844 119.396H133.786V83.044C133.786 81.0903 134.523 79.2167 135.834 77.8353C137.144 76.4538 138.922 75.6777 140.776 75.6777H171.854C173.708 75.6777 175.486 76.4538 176.796 77.8353C178.107 79.2167 178.844 81.0903 178.844 83.044V119.396Z" fill="#E0E0E0"/>
<path d="M170.038 119.396H124.981V82.6876C124.981 80.8274 125.682 79.0433 126.93 77.728C128.179 76.4126 129.871 75.6736 131.637 75.6736H163.367C165.132 75.6736 166.825 76.4126 168.073 77.728C169.321 79.0433 170.022 80.8274 170.022 82.6876V119.396H170.038Z" fill="#F5F5F5"/>
<path d="M148.824 121.521L117.794 121.521C117.261 121.521 116.748 121.298 116.371 120.9C115.993 120.502 115.781 119.963 115.781 119.4V114.024C115.781 113.461 115.993 112.921 116.371 112.524C116.748 112.126 117.261 111.902 117.794 111.902H148.824C148.986 111.902 149.14 111.97 149.254 112.09C149.368 112.21 149.432 112.373 149.432 112.543V120.885C149.431 121.054 149.367 121.216 149.253 121.335C149.139 121.455 148.985 121.521 148.824 121.521Z" fill="#E0E0E0"/>
<path d="M182.165 98.6974C182.379 98.6974 182.592 98.6974 182.814 98.7186C185.04 98.8892 187.133 99.9015 188.707 101.569C190.281 103.237 191.231 105.448 191.381 107.795C191.449 108.861 191.348 109.933 191.083 110.964C190.074 115.108 189.586 119.374 189.634 123.652V136.101C189.634 136.316 189.594 136.529 189.516 136.727C189.437 136.926 189.323 137.106 189.178 137.258C189.034 137.41 188.863 137.53 188.674 137.612C188.486 137.694 188.284 137.735 188.08 137.735H150.58V98.6974H182.165Z" fill="#F0F0F0"/>
<path d="M141.344 108.435C141.327 105.898 142.252 103.453 143.921 101.624C145.59 99.7943 147.871 98.724 150.277 98.641C152.684 98.558 155.027 99.4689 156.805 101.18C158.584 102.89 159.659 105.265 159.8 107.799C159.863 108.865 159.763 109.936 159.502 110.969C158.493 115.111 158.005 119.375 158.052 123.652V136.101C158.052 136.534 157.889 136.95 157.598 137.256C157.308 137.563 156.913 137.735 156.502 137.735H144.657C144.454 137.735 144.252 137.692 144.064 137.61C143.876 137.528 143.705 137.408 143.561 137.256C143.417 137.105 143.303 136.924 143.225 136.726C143.147 136.528 143.107 136.316 143.107 136.101V122.917C143.141 118.907 142.66 114.911 141.678 111.036C141.456 110.189 141.343 109.314 141.344 108.435Z" fill="#F5F5F5"/>
<path d="M105.285 138.922H181.505C181.653 138.922 181.799 138.891 181.936 138.832C182.072 138.772 182.196 138.684 182.301 138.574C182.405 138.464 182.488 138.333 182.544 138.189C182.6 138.045 182.629 137.89 182.628 137.735H104.162C104.161 137.89 104.19 138.045 104.246 138.189C104.302 138.333 104.385 138.464 104.489 138.574C104.594 138.684 104.718 138.772 104.854 138.832C104.991 138.891 105.137 138.922 105.285 138.922Z" fill="#E0E0E0"/>
<path d="M150.427 47.8932H174.942V19.714L150.427 19.714V47.8932Z" fill="#E0E0E0"/>
<path d="M148.965 47.8932H174.117V19.714L148.965 19.714V47.8932Z" fill="#F5F5F5"/>
<path d="M172.007 45.6741V21.9332H151.067V45.6741H172.007Z" fill="white"/>
<path d="M161.539 27.8016L167.264 38.2568H155.814L161.539 27.8016Z" fill="#F5F5F5"/>
<path d="M116.035 64.3441H140.551V36.1649H116.035V64.3441Z" fill="#E0E0E0"/>
<path d="M114.573 64.3441H139.725V36.1649H114.573V64.3441Z" fill="#F5F5F5"/>
<path d="M137.615 62.1249V38.3842H116.675V62.1249H137.615Z" fill="white"/>
<path d="M124.587 54.4871L122.102 49.9511C121.844 49.4777 121.708 48.9409 121.709 48.3947C121.709 47.8485 121.846 47.312 122.106 46.8391C122.365 46.3663 122.738 45.9736 123.187 45.7006C123.636 45.4276 124.145 45.2837 124.663 45.2836H129.644C130.162 45.2843 130.671 45.4284 131.119 45.7014C131.568 45.9745 131.941 46.3669 132.201 46.8394C132.46 47.312 132.598 47.8481 132.599 48.3942C132.6 48.9403 132.466 49.4771 132.208 49.9511L129.724 54.4871C129.465 54.9642 129.091 55.3607 128.64 55.6364C128.189 55.9122 127.677 56.0574 127.155 56.0574C126.634 56.0574 126.122 55.9122 125.671 55.6364C125.219 55.3607 124.846 54.9642 124.587 54.4871V54.4871Z" fill="#F5F5F5"/>
<path d="M100.655 158.085C143.768 158.085 178.719 155.935 178.719 153.282C178.719 150.629 143.768 148.479 100.655 148.479C57.5414 148.479 22.591 150.629 22.591 153.282C22.591 155.935 57.5414 158.085 100.655 158.085Z" fill="#F5F5F5"/>
<path d="M127.429 18.7975H34.6172L40.725 152.009H133.537L127.429 18.7975Z" fill="#F79E89"/>
<path opacity="0.2" d="M127.429 18.7975H34.6172L40.725 152.009H133.537L127.429 18.7975Z" fill="black"/>
<path d="M128.287 18.7975H35.4748L41.5866 152.009H134.398L128.287 18.7975Z" fill="#F79E89"/>
<path opacity="0.2" d="M123.387 23.2783H39.7184L45.5645 145.988L118.318 145.886L130.409 134.591L123.387 23.2783Z" fill="black"/>
<path d="M124.027 23.274C124.919 60.023 127.735 96.6921 132.462 133.114C125.832 137.923 119.236 142.732 112.673 147.541H50.098C44.1917 106.386 40.7251 64.8834 39.7184 23.274H124.027Z" fill="white"/>
<path d="M132.462 133.114C125.832 137.923 119.236 142.732 112.673 147.541C114.106 141.176 115.6 134.811 117.154 128.446L132.462 133.114Z" fill="#EBEBEB"/>
<path d="M62.4061 34.5016C62.5644 38.9937 62.7496 43.4887 62.9617 47.9865H50.1704C49.9557 43.4887 49.7705 38.9937 49.6148 34.5016H62.4061ZM63.7105 33.0801H48.2177C48.3976 38.5199 48.6217 43.9625 48.8901 49.408H64.3869C64.1185 43.9653 63.8944 38.5227 63.7146 33.0801H63.7105Z" fill="#F79E89"/>
<path d="M114.674 39.5638H70.8611C70.8208 38.5497 70.7846 37.5313 70.7483 36.5171H114.557C114.594 37.5313 114.634 38.5497 114.674 39.5638Z" fill="#E0E0E0"/>
<path d="M105.418 45.9711H71.1308C71.0865 44.9527 71.0382 43.9386 70.998 42.9244H105.281C105.327 43.94 105.372 44.9555 105.418 45.9711Z" fill="#E0E0E0"/>
<path d="M63.6622 60.9114C63.9306 65.4092 64.2299 69.907 64.5601 74.4048H51.7648C51.4347 69.907 51.1354 65.4092 50.867 60.9114H63.6622ZM64.9265 59.4899H49.4337C49.7504 64.9353 50.1114 70.3808 50.5167 75.8263H66.0296C65.627 70.3836 65.2647 64.9382 64.9426 59.4899H64.9265Z" fill="#F79E89"/>
<path d="M88.3348 65.9778H72.23C72.1656 64.9594 72.0971 63.9453 72.0367 62.9269H88.1415C88.2019 63.9453 88.2663 64.9594 88.3348 65.9778Z" fill="#E0E0E0"/>
<path d="M103.582 65.9778H91.7409C91.6765 64.9594 91.6081 63.9453 91.5477 62.9269H103.389C103.449 63.9453 103.514 64.9594 103.582 65.9778Z" fill="#E0E0E0"/>
<path d="M111.014 72.3893H72.6729C72.6004 71.3709 72.5319 70.3568 72.4595 69.3385H110.801C110.873 70.3568 110.942 71.3709 111.014 72.3893Z" fill="#E0E0E0"/>
<path d="M65.5827 87.3338C65.9666 91.8317 66.3799 96.3295 66.8228 100.827H54.0275C53.5847 96.3295 53.1713 91.8317 52.7875 87.3338H65.5827ZM66.8147 85.9124H51.3179C51.7742 91.3607 52.2735 96.8076 52.8157 102.253H68.3125C67.7757 96.8047 67.2764 91.3578 66.8147 85.9124V85.9124Z" fill="#F79E89"/>
<path d="M118.41 95.765H74.5934L74.8832 98.8118H118.7L118.41 95.765Z" fill="#E0E0E0"/>
<path d="M108.305 89.3538H74.0176C74.1062 90.3678 74.1948 91.3862 74.2874 92.4003H108.57C108.482 91.3862 108.389 90.3806 108.305 89.3538Z" fill="#E0E0E0"/>
<path d="M68.1716 113.757C68.6708 118.254 69.1982 122.751 69.7539 127.246H56.9586C56.403 122.754 55.8756 118.257 55.3763 113.757H68.1716ZM69.3794 112.335H53.8705C54.461 117.783 55.0985 123.227 55.783 128.667H71.2637C70.5846 123.227 69.9471 117.783 69.3512 112.335H69.3794Z" fill="#F79E89"/>
<path d="M120.822 118.81H77.005C76.8883 117.792 76.7715 116.778 76.6588 115.759H120.472C120.589 116.79 120.701 117.804 120.822 118.81Z" fill="#E0E0E0"/>
<path d="M97.7118 125.23H77.766C77.6412 124.216 77.5204 123.198 77.3996 122.183H97.3454C97.4662 123.198 97.587 124.216 97.7118 125.23Z" fill="#E0E0E0"/>
<path d="M109.621 125.23H101.009C100.884 124.216 100.764 123.198 100.643 122.183H109.255C109.376 123.198 109.513 124.216 109.621 125.23Z" fill="#E0E0E0"/>
<path d="M56.7694 46.0602L56.2017 45.1097C54.9616 43.0305 52.4332 41.1762 51.5595 40.6331L52.2117 39.4153C53.9258 40.5123 55.4573 41.8985 56.7452 43.5185C58.6939 40.7222 61.5767 37.8326 65.5223 34.7266L66.3558 35.8722C62.1443 39.1947 59.1972 42.237 57.3371 45.1649L56.7694 46.0602Z" fill="#F79E89"/>
<path d="M58.2993 72.4784L57.7075 71.5279C56.4191 69.4487 53.8423 67.5902 52.9566 67.0471L53.5726 65.8292C55.3193 66.9266 56.8868 68.3136 58.2148 69.9367C60.091 67.1362 62.8973 64.2465 66.7664 61.1362C67.0523 61.5181 67.3422 61.9 67.628 62.2861C63.5012 65.6128 60.6305 68.651 58.8469 71.5831C58.6617 71.8801 58.4805 72.1814 58.2993 72.4784Z" fill="#F79E89"/>
<path d="M60.5218 98.9687L59.9058 98.0183C58.561 95.9391 55.936 94.0806 55.0381 93.5417C55.2314 93.1174 55.4407 92.727 55.6259 92.3239C57.3999 93.4231 59.0002 94.8075 60.3688 96.4271C62.1766 93.6266 64.9104 90.7412 68.695 87.6267L69.5888 88.7766C65.5626 92.1033 62.7443 95.1414 61.0412 98.0734L60.5218 98.9687Z" fill="#F79E89"/>
<path d="M101.11 140.221C98.7344 140.221 97.3655 139.296 96.1577 138.482C94.9498 137.667 93.9111 136.963 91.906 136.963C89.901 136.963 89.0071 137.701 88.061 138.482C87.1148 139.262 85.9553 140.221 83.5798 140.221C81.2044 140.221 79.8355 139.296 78.6316 138.482C77.4278 137.667 76.389 136.963 74.38 136.963C72.3709 136.963 71.4811 137.701 70.535 138.482C69.5888 139.262 68.4293 140.221 66.0578 140.221C63.6864 140.221 62.3135 139.296 61.1056 138.482C59.8977 137.667 58.863 136.963 56.8539 136.963C56.8016 136.538 56.7452 136.148 56.6929 135.741C59.0683 135.741 60.4332 136.666 61.6411 137.48C62.8489 138.295 63.8837 138.999 65.8887 138.999C67.8938 138.999 68.7876 138.261 69.7337 137.48C70.6799 136.7 71.8435 135.741 74.2189 135.741C76.5944 135.741 77.9552 136.666 79.1631 137.48C80.3709 138.295 81.4097 138.999 83.4148 138.999C85.4198 138.999 86.3136 138.261 87.2598 137.48C88.2059 136.7 89.3695 135.741 91.745 135.741C94.1204 135.741 95.4853 136.666 96.6932 137.48C97.901 138.295 98.9357 138.999 100.945 138.999C100.997 139.407 101.058 139.814 101.11 140.221Z" fill="#EBEBEB"/>
<path d="M104.516 22.0944C103.155 18.2756 100.011 15.7678 96.6287 15.7678H89.7359C89.2228 15.7631 88.7223 15.5998 88.2964 15.298C87.8706 14.9963 87.5381 14.5695 87.3403 14.0705C86.853 12.8509 86.0382 11.808 84.996 11.07C83.9538 10.332 82.7297 9.93101 81.4741 9.91645C80.2595 9.90347 79.0727 10.2994 78.0864 11.0465C77.1001 11.7937 76.3658 12.8531 75.9904 14.0705C75.8375 14.5687 75.5373 15.0021 75.1338 15.3075C74.7303 15.6129 74.2446 15.7742 73.7478 15.7678H66.859C63.473 15.7678 60.558 18.2883 59.5515 22.0944L59.1489 23.6093H105.047L104.516 22.0944Z" fill="#263238"/>
<path d="M104.762 25.1029H59.5877C59.2067 25.0982 58.8416 24.9415 58.5659 24.6643C58.2902 24.3871 58.1244 24.0101 58.102 23.6093V23.6093C58.0921 23.4167 58.1198 23.224 58.1832 23.0431C58.2467 22.8621 58.3446 22.6968 58.4709 22.5573C58.5973 22.4178 58.7494 22.307 58.9179 22.2318C59.0865 22.1565 59.2678 22.1185 59.4508 22.1199H104.625C105.005 22.1245 105.37 22.2806 105.645 22.5569C105.921 22.8332 106.087 23.2092 106.11 23.6093C106.121 23.8022 106.094 23.9954 106.031 24.1768C105.967 24.3582 105.87 24.524 105.743 24.664C105.617 24.804 105.464 24.9152 105.296 24.9907C105.127 25.0662 104.945 25.1043 104.762 25.1029V25.1029Z" fill="#F79E89"/>
<path opacity="0.2" d="M104.762 25.1029H59.5877C59.2067 25.0982 58.8416 24.9415 58.5659 24.6643C58.2902 24.3871 58.1244 24.0101 58.102 23.6093V23.6093C58.0921 23.4167 58.1198 23.224 58.1832 23.0431C58.2467 22.8621 58.3446 22.6968 58.4709 22.5573C58.5973 22.4178 58.7494 22.307 58.9179 22.2318C59.0865 22.1565 59.2678 22.1185 59.4508 22.1199H104.625C105.005 22.1245 105.37 22.2806 105.645 22.5569C105.921 22.8332 106.087 23.2092 106.11 23.6093C106.121 23.8022 106.094 23.9954 106.031 24.1768C105.967 24.3582 105.87 24.524 105.743 24.664C105.617 24.804 105.464 24.9152 105.296 24.9907C105.127 25.0662 104.945 25.1043 104.762 25.1029V25.1029Z" fill="black"/>
<path d="M145.314 150.732H142.362L142.068 143.531H145.02L145.314 150.732Z" fill="#FFC3BD"/>
<path d="M163.025 150.732H160.074L158.592 143.531H161.539L163.025 150.732Z" fill="#FFC3BD"/>
<path d="M159.864 150.371H163.178C163.236 150.371 163.293 150.392 163.338 150.43C163.384 150.469 163.415 150.523 163.427 150.583L164.011 153.35C164.024 153.417 164.023 153.486 164.008 153.553C163.992 153.62 163.963 153.682 163.921 153.735C163.88 153.787 163.828 153.83 163.769 153.859C163.71 153.888 163.645 153.902 163.58 153.902C162.425 153.88 161.861 153.808 160.404 153.808C159.506 153.808 157.658 153.906 156.422 153.906C155.186 153.906 155.021 152.633 155.528 152.501C157.803 151.975 158.656 151.254 159.385 150.562C159.517 150.439 159.688 150.371 159.864 150.371V150.371Z" fill="#263238"/>
<path d="M142.382 150.371H145.603C145.662 150.371 145.719 150.392 145.764 150.43C145.81 150.469 145.841 150.523 145.853 150.583L146.437 153.35C146.451 153.415 146.452 153.482 146.438 153.547C146.425 153.612 146.398 153.673 146.359 153.726C146.321 153.779 146.272 153.822 146.216 153.852C146.159 153.883 146.097 153.899 146.034 153.902C144.871 153.88 143.192 153.808 141.73 153.808C140.023 153.808 138.549 153.906 136.544 153.906C135.337 153.906 134.998 152.633 135.506 152.501C137.813 151.967 139.697 151.911 141.69 150.613C141.896 150.469 142.135 150.385 142.382 150.371Z" fill="#263238"/>
<path d="M148.164 37.3064C147.761 39.5808 147.528 42.3983 149.038 43.9174C149.038 43.9174 148.172 46.2257 144.162 46.2257C140.498 46.2257 142.334 43.9174 142.334 43.9174C144.75 43.3106 144.613 40.1748 144.194 38.4012L148.164 37.3064Z" fill="#FFC3BD"/>
<path d="M141.183 44.2356C141.263 43.6713 142.205 43.0136 143.276 42.7675C144.347 42.5214 148.462 41.9741 149.718 42.5214C150.974 43.0688 149.501 44.6896 149.501 44.6896L141.183 44.2356Z" fill="#F79E89"/>
<path opacity="0.4" d="M141.183 44.2356C141.263 43.6713 142.205 43.0136 143.276 42.7675C144.347 42.5214 148.462 41.9741 149.718 42.5214C150.974 43.0688 149.501 44.6896 149.501 44.6896L141.183 44.2356Z" fill="white"/>
<path opacity="0.2" d="M142.068 143.535L142.221 147.244H145.173L145.02 143.535H142.068Z" fill="black"/>
<path opacity="0.2" d="M161.543 143.535H158.592L159.357 147.244H162.308L161.543 143.535Z" fill="black"/>
<path d="M155.149 46.7179L151.594 49.2214C151.594 49.2214 156.7 58.7898 156.273 60.3216C155.689 62.4093 154.876 66.9708 153.769 69.2876C153.913 69.7883 154.65 70.9297 155.061 71.1249C157.879 68.8675 160.726 61.7898 160.621 59.8082C160.376 55.3147 155.149 46.7179 155.149 46.7179Z" fill="#FFC3BD"/>
<path d="M153.769 69.296L150.95 69.0669L152.428 72.3384C152.428 72.3384 154.888 72.4529 155.298 70.4714L153.769 69.296Z" fill="#B55B52"/>
<path d="M167.699 85.2505L167.462 85.7215L165.867 88.8997L109.267 57.3599L111.095 53.7107L167.699 85.2505Z" fill="#F79E89"/>
<path d="M171.359 77.9649L170.191 80.2902L169.531 81.6056L112.927 50.0658L114.755 46.4166L171.359 77.9649Z" fill="#F79E89"/>
<path d="M112.945 50.0549L111.114 53.6996L167.695 85.2859L169.527 81.6412L112.945 50.0549Z" fill="#F79E89"/>
<path opacity="0.2" d="M112.945 50.0549L111.114 53.6996L167.695 85.2859L169.527 81.6412L112.945 50.0549Z" fill="black"/>
<path d="M106.827 46.9003L105.18 50.1845L109.267 57.3599L114.755 46.4208L106.827 46.9003Z" fill="#F79E89"/>
<path opacity="0.8" d="M106.827 46.9003L105.18 50.1845L109.267 57.3599L114.755 46.4208L106.827 46.9003Z" fill="white"/>
<path d="M103.429 47.1082L105.18 50.1846L106.827 46.9003L103.429 47.1082Z" fill="#F79E89"/>
<path d="M148.683 70.5562L150.157 73.4501L152.44 72.3384L150.962 69.0669L148.683 70.5562Z" fill="#B55B52"/>
<path d="M154.304 44.6218C157.094 45.0461 160.291 55.2297 160.291 55.2297L154.429 58.7177C154.429 58.7177 151.848 53.8889 150.58 50.2822C149.243 46.51 151.313 44.1635 154.304 44.6218Z" fill="#263238"/>
<path opacity="0.2" d="M152.681 48.1139C151.413 46.8918 152.19 52.1236 152.794 55.4715C153.104 56.125 153.398 56.719 153.648 57.2155C155.061 54.5847 154.429 49.7984 152.681 48.1139Z" fill="black"/>
<path d="M137.78 44.783C137.78 44.783 134.298 54.1689 137.603 71.6509H153.398C153.507 69.105 151.985 56.6469 154.32 44.6217C152.576 44.2667 150.811 44.0315 149.038 43.9173C146.805 43.7815 144.567 43.7815 142.334 43.9173C140.797 44.0793 139.274 44.3687 137.78 44.783V44.783Z" fill="#263238"/>
<path d="M140.208 49.1449L136.23 47.4858C136.23 47.4858 131.649 57.3429 130.191 57.8393C128.23 58.5182 124.204 60.3853 121.764 60.7502C121.458 61.1745 120.983 62.4475 121.06 62.9142C124.422 64.0726 131.576 62.5366 133.058 61.323C136.456 58.5564 140.208 49.1449 140.208 49.1449Z" fill="#FFC3BD"/>
<path opacity="0.2" d="M140.655 48.0248C139.999 46.4293 138.743 45.7631 137.434 45.9965C136.927 47.9526 136.069 52.251 136.226 58.7262L137.164 59.2014C137.164 59.2014 141.779 50.7532 140.655 48.0248Z" fill="black"/>
<path d="M141.283 46.9088C142.274 49.6923 137.257 57.8817 137.257 57.8817L131.355 54.4872C132.241 51.94 133.385 49.5004 134.765 47.2101C136.838 43.947 140.192 43.8579 141.283 46.9088Z" fill="#263238"/>
<path d="M121.909 60.7417L118.398 61.5267L120.178 64.9509C121.159 64.4365 122.051 63.7507 122.815 62.9227L121.909 60.7417Z" fill="#FFC3BD"/>
<path d="M116.74 62.3032L118.141 64.3484L120.178 64.9679L118.398 61.5437L116.74 62.3032Z" fill="#FFC3BD"/>
<path d="M141.472 34.0346C141.472 34.2848 141.324 34.4586 141.167 34.4586C141.009 34.4586 140.897 34.2381 140.913 33.9879C140.929 33.7377 141.062 33.5638 141.219 33.5638C141.376 33.5638 141.489 33.7844 141.472 34.0346Z" fill="#263238"/>
<path d="M141.682 34.056C141.357 34.8036 140.935 35.5004 140.43 36.1267C140.585 36.2592 140.766 36.3541 140.96 36.4047C141.155 36.4553 141.357 36.4603 141.553 36.4194L141.682 34.056Z" fill="#ED847E"/>
<path d="M141.171 33.1685C141.149 33.1637 141.129 33.1551 141.11 33.143C141.095 33.1327 141.081 33.1192 141.071 33.1033C141.06 33.0873 141.053 33.0693 141.049 33.0503C141.045 33.0313 141.045 33.0117 141.049 32.9927C141.052 32.9736 141.059 32.9556 141.07 32.9395C141.187 32.741 141.346 32.5745 141.536 32.4536C141.726 32.3327 141.94 32.261 142.161 32.2443C142.198 32.2463 142.232 32.2626 142.258 32.29C142.285 32.3174 142.3 32.3539 142.302 32.3926C142.302 32.432 142.287 32.4697 142.261 32.4976C142.234 32.5254 142.198 32.541 142.161 32.541C141.989 32.5579 141.824 32.6169 141.678 32.7134C141.531 32.8098 141.409 32.941 141.32 33.0964C141.305 33.1233 141.283 33.1447 141.256 33.1576C141.229 33.1705 141.199 33.1743 141.171 33.1685V33.1685Z" fill="#263238"/>
<path d="M149.477 33.8185C149.13 36.8821 149.074 38.6897 147.516 40.1833C145.169 42.4237 141.646 40.7986 141.114 37.6841C140.639 34.8835 141.287 30.3475 144.21 29.2952C144.854 29.0607 145.543 29.0033 146.213 29.1284C146.883 29.2535 147.512 29.5571 148.039 30.0102C148.567 30.4634 148.976 31.0511 149.228 31.7176C149.479 32.3841 149.565 33.1072 149.477 33.8185V33.8185Z" fill="#FFC3BD"/>
<path d="M143.618 34.4168C142.6 34.6289 140.973 32.2442 142.302 30.2202C141.63 29.868 139.435 31.2598 138.61 29.9614C137.785 28.663 140.075 27.9713 139.637 26.8723C141.191 27.2075 138.63 29.2528 140.108 29.0533C141.585 28.8539 143.288 25.977 144.939 27.1566C147.858 29.2231 151.836 25.7776 150.213 30.0929C152.202 29.6686 153.563 32.1466 151.667 33.8651C147.886 37.2809 150.213 37.7307 147.818 37.9047C146.618 37.9981 143.828 36.4917 143.618 34.4168Z" fill="#263238"/>
<path d="M145.128 35.2187C144.989 35.525 144.793 35.7988 144.551 36.024C144.31 36.2491 144.029 36.4212 143.723 36.5299C142.918 36.8226 142.455 36.0631 142.644 35.2272C142.813 34.4719 143.449 33.411 144.283 33.4874C144.466 33.5063 144.641 33.5731 144.793 33.6819C144.945 33.7907 145.069 33.938 145.153 34.1102C145.237 34.2824 145.279 34.4741 145.275 34.6678C145.27 34.8614 145.22 35.0508 145.128 35.2187Z" fill="#FFC3BD"/>
<path d="M143.2 71.6509C143.2 71.6509 146.55 95.4129 148.385 104.324C150.399 114.083 157.98 146.539 157.98 146.539H163.383C163.383 146.539 158.387 114.86 157.235 105.206C155.991 94.734 153.382 71.6636 153.382 71.6636L143.2 71.6509Z" fill="#F79E89"/>
<path opacity="0.2" d="M143.2 71.6509C143.2 71.6509 146.55 95.4129 148.385 104.324C150.399 114.083 157.98 146.539 157.98 146.539H163.383C163.383 146.539 158.387 114.86 157.235 105.206C155.991 94.734 153.382 71.6636 153.382 71.6636L143.2 71.6509Z" fill="white"/>
<path opacity="0.2" d="M147.178 79.9592C146.928 79.5858 146.703 79.4585 146.493 79.5349H146.449C146.401 79.5568 146.357 79.5854 146.316 79.6197C146.273 79.6564 146.234 79.6977 146.199 79.7428L146.135 79.8277L146.05 79.9677C145.98 80.0912 145.92 80.2203 145.869 80.3538C145.837 80.4344 145.805 80.5193 145.777 80.6042C145.748 80.689 145.704 80.8206 145.672 80.9394C145.64 81.0582 145.579 81.2619 145.535 81.4358C145.535 81.4825 145.515 81.5249 145.503 81.5716C145.491 81.6183 145.458 81.7668 145.438 81.8644C145.418 81.962 145.402 82.0341 145.386 82.119C145.35 82.2845 145.318 82.4584 145.285 82.6367C145.253 82.8149 145.217 83.0228 145.185 83.2222C145.185 83.2901 145.165 83.358 145.152 83.4301C145.112 83.6847 145.076 83.9436 145.04 84.2109C145.934 90.1259 146.996 96.9065 147.858 101.638C147.898 101.485 147.943 101.324 147.979 101.15C148.155 100.36 148.289 99.5615 148.381 98.7566C149.142 92.6591 148.792 82.3906 147.178 79.9592Z" fill="black"/>
<path d="M137.603 71.6509C137.603 71.6509 137.201 94.8952 137.519 104.379C137.853 114.24 141.122 146.527 141.122 146.527H146.119C146.119 146.527 146.3 114.813 146.521 105.13C146.763 94.5728 147.971 71.6509 147.971 71.6509H137.603Z" fill="#F79E89"/>
<path opacity="0.2" d="M137.603 71.6509C137.603 71.6509 137.201 94.8952 137.519 104.379C137.853 114.24 141.122 146.527 141.122 146.527H146.119C146.119 146.527 146.3 114.813 146.521 105.13C146.763 94.5728 147.971 71.6509 147.971 71.6509H137.603Z" fill="white"/>
<path d="M146.449 144.914C146.469 144.914 146.449 146.633 146.449 146.633H140.687L140.446 144.702L146.449 144.914Z" fill="#263238"/>
<path d="M163.383 145.042C163.407 145.042 163.653 146.633 163.653 146.633H157.714L157.191 144.808L163.383 145.042Z" fill="#263238"/>
<path d="M158.89 150.914C158.689 150.931 158.489 150.876 158.322 150.757C158.268 150.711 158.226 150.65 158.201 150.582C158.175 150.514 158.167 150.439 158.177 150.367C158.178 150.324 158.189 150.283 158.209 150.246C158.23 150.21 158.259 150.18 158.294 150.159C158.62 149.985 159.574 150.583 159.683 150.668C159.694 150.676 159.703 150.688 159.708 150.702C159.713 150.715 159.714 150.73 159.711 150.744C159.709 150.758 159.703 150.772 159.694 150.782C159.684 150.793 159.672 150.8 159.659 150.803C159.407 150.87 159.149 150.907 158.89 150.914ZM158.451 150.273C158.42 150.266 158.389 150.266 158.358 150.273C158.344 150.282 158.333 150.294 158.325 150.309C158.317 150.324 158.313 150.341 158.314 150.358C158.308 150.408 158.314 150.458 158.33 150.505C158.347 150.551 158.375 150.593 158.411 150.625C158.739 150.786 159.114 150.807 159.458 150.685C159.15 150.481 158.809 150.341 158.451 150.273Z" fill="#F79E89"/>
<path d="M159.643 150.808C159.632 150.812 159.621 150.812 159.611 150.808C159.305 150.634 158.717 149.96 158.777 149.607C158.787 149.553 158.815 149.505 158.855 149.47C158.896 149.435 158.946 149.416 158.999 149.416C159.052 149.408 159.106 149.412 159.157 149.428C159.209 149.444 159.256 149.472 159.296 149.51C159.639 149.803 159.699 150.702 159.699 150.74C159.699 150.753 159.696 150.766 159.69 150.778C159.685 150.79 159.677 150.8 159.667 150.808C159.659 150.81 159.651 150.81 159.643 150.808V150.808ZM159.047 149.535H159.035C158.942 149.535 158.934 149.59 158.93 149.612C158.894 149.815 159.268 150.329 159.574 150.571C159.553 150.217 159.431 149.878 159.224 149.599C159.198 149.575 159.168 149.558 159.135 149.549C159.103 149.539 159.068 149.538 159.035 149.544L159.047 149.535Z" fill="#F79E89"/>
<path d="M141.154 150.914C140.902 150.938 140.649 150.871 140.438 150.723C140.391 150.678 140.356 150.623 140.333 150.561C140.311 150.499 140.303 150.433 140.309 150.367C140.309 150.326 140.32 150.287 140.339 150.253C140.359 150.218 140.388 150.19 140.422 150.172C140.78 149.96 141.968 150.596 142.101 150.668C142.114 150.674 142.125 150.685 142.132 150.699C142.138 150.713 142.14 150.729 142.137 150.744C142.135 150.759 142.129 150.773 142.118 150.784C142.108 150.795 142.095 150.802 142.08 150.803C141.776 150.872 141.466 150.909 141.154 150.914V150.914ZM140.619 150.273C140.575 150.272 140.531 150.28 140.49 150.299C140.477 150.307 140.466 150.319 140.458 150.333C140.45 150.347 140.446 150.363 140.446 150.379C140.44 150.423 140.445 150.467 140.46 150.507C140.474 150.548 140.499 150.584 140.53 150.613C140.712 150.782 141.199 150.812 141.851 150.697C141.466 150.484 141.049 150.341 140.619 150.273V150.273Z" fill="#F79E89"/>
<path d="M142.068 150.807H142.04C141.682 150.637 140.977 149.959 141.034 149.616C141.034 149.535 141.102 149.429 141.291 149.412C141.363 149.401 141.436 149.406 141.505 149.427C141.575 149.449 141.639 149.485 141.694 149.535C142.068 149.862 142.145 150.697 142.149 150.735C142.151 150.747 142.149 150.76 142.144 150.771C142.139 150.783 142.131 150.792 142.121 150.799C142.105 150.808 142.086 150.811 142.068 150.807V150.807ZM141.348 149.535H141.32C141.195 149.535 141.187 149.599 141.183 149.62C141.15 149.828 141.63 150.358 141.988 150.587C141.953 150.23 141.812 149.895 141.585 149.628C141.517 149.574 141.433 149.544 141.348 149.544V149.535Z" fill="#F79E89"/>
</svg>
